HIERARCHY
ROOT Hips
{
  OFFSET -43.3411 73.6987 0
  CHANNELS 6 Xposition Yposition Zposition Zrotation Xrotation Yrotation
  JOINT Bip01_Pelvis
  {
    OFFSET 0 0 0
    CHANNELS 6 Xposition Yposition Zposition Zrotation Xrotation Yrotation
    JOINT BN_Tail_01
    {
      OFFSET -18.6385 -9.591 -2.032e-005
      CHANNELS 6 Xposition Yposition Zposition Zrotation Xrotation Yrotation
      JOINT BN_Tail_02
      {
        OFFSET 20.9743 0 0
        CHANNELS 6 Xposition Yposition Zposition Zrotation Xrotation Yrotation
        JOINT BN_Tail_03
        {
          OFFSET 20.3015 0 0
          CHANNELS 6 Xposition Yposition Zposition Zrotation Xrotation Yrotation
          JOINT BN_Tail_04
          {
            OFFSET 21.6394 -9.91821e-005 0
            CHANNELS 6 Xposition Yposition Zposition Zrotation Xrotation Yrotation
            End Site
            {
              OFFSET 0 0 0
            }
          }
        }
      }
    }
    JOINT Bip01_Spine
    {
      OFFSET 22.1878 -0.659386 3.048e-005
      CHANNELS 6 Xposition Yposition Zposition Zrotation Xrotation Yrotation
      JOINT Bip01_R_Thigh
      {
        OFFSET -22.1873 0.677109 -17.1024
        CHANNELS 6 Xposition Yposition Zposition Zrotation Xrotation Yrotation
        JOINT Bip01_R_Calf
        {
          OFFSET 34.2647 0 0
          CHANNELS 6 Xposition Yposition Zposition Zrotation Xrotation Yrotation
          JOINT Bip01_R_HorseLink
          {
            OFFSET 20.4429 0 0
            CHANNELS 6 Xposition Yposition Zposition Zrotation Xrotation Yrotation
            JOINT Bip01_R_Foot
            {
              OFFSET 16.5673 0 0
              CHANNELS 6 Xposition Yposition Zposition Zrotation Xrotation Yrotation
              JOINT Bip01_R_Toe0
              {
                OFFSET 9.18784 6.94841 0
                CHANNELS 6 Xposition Yposition Zposition Zrotation Xrotation Yrotation
                JOINT Bip01_R_Toe0Nub
                {
                  OFFSET 1.01907 0 0
                  CHANNELS 6 Xposition Yposition Zposition Zrotation Xrotation Yrotation
                  End Site
                  {
                    OFFSET 0 0 0
                  }
                }
              }
            }
          }
        }
      }
      JOINT Bip01_L_Thigh
      {
        OFFSET -22.1873 0.67701 17.1024
        CHANNELS 6 Xposition Yposition Zposition Zrotation Xrotation Yrotation
        JOINT Bip01_L_Calf
        {
          OFFSET 34.2647 0 0
          CHANNELS 6 Xposition Yposition Zposition Zrotation Xrotation Yrotation
          JOINT Bip01_L_HorseLink
          {
            OFFSET 20.4429 0 0
            CHANNELS 6 Xposition Yposition Zposition Zrotation Xrotation Yrotation
            JOINT Bip01_L_Foot
            {
              OFFSET 16.5673 0 0
              CHANNELS 6 Xposition Yposition Zposition Zrotation Xrotation Yrotation
              JOINT Bip01_L_Toe0
              {
                OFFSET 9.18784 6.9484 1.14441e-005
                CHANNELS 6 Xposition Yposition Zposition Zrotation Xrotation Yrotation
                JOINT Bip01_L_Toe0Nub
                {
                  OFFSET 1.01907 0 0
                  CHANNELS 6 Xposition Yposition Zposition Zrotation Xrotation Yrotation
                  End Site
                  {
                    OFFSET 0 0 0
                  }
                }
              }
            }
          }
        }
      }
      JOINT Bip01_Spine1
      {
        OFFSET 39.3372 -0.0249863 0
        CHANNELS 6 Xposition Yposition Zposition Zrotation Xrotation Yrotation
        JOINT Bip01_Neck
        {
          OFFSET 34.2837 -15.5934 -4.318e-005
          CHANNELS 6 Xposition Yposition Zposition Zrotation Xrotation Yrotation
          JOINT Bip01_R_Clavicle
          {
            OFFSET -17.9452 -11.3131 -6.19287
            CHANNELS 6 Xposition Yposition Zposition Zrotation Xrotation Yrotation
            JOINT Bip01_R_UpperArm
            {
              OFFSET 17.4439 1.52588e-005 -2.28882e-005
              CHANNELS 6 Xposition Yposition Zposition Zrotation Xrotation Yrotation
              JOINT Bip01_R_Forearm
              {
                OFFSET 30.6251 1.14441e-005 0
                CHANNELS 6 Xposition Yposition Zposition Zrotation Xrotation Yrotation
                JOINT Bip01_R_Hand
                {
                  OFFSET 31.2039 0 0
                  CHANNELS 6 Xposition Yposition Zposition Zrotation Xrotation Yrotation
                  JOINT Bip01_R_Finger0
                  {
                    OFFSET 22.1039 0.255862 -0.37902
                    CHANNELS 6 Xposition Yposition Zposition Zrotation Xrotation Yrotation
                    JOINT Bip01_R_Finger0Nub
                    {
                      OFFSET 12.0552 0 0
                      CHANNELS 6 Xposition Yposition Zposition Zrotation Xrotation Yrotation
                      End Site
                      {
                        OFFSET 0 0 0
                      }
                    }
                  }
                }
              }
            }
          }
          JOINT Bip01_L_Clavicle
          {
            OFFSET -17.9452 -11.3132 6.19281
            CHANNELS 6 Xposition Yposition Zposition Zrotation Xrotation Yrotation
            JOINT Bip01_L_UpperArm
            {
              OFFSET 17.444 0 1.14441e-005
              CHANNELS 6 Xposition Yposition Zposition Zrotation Xrotation Yrotation
              JOINT Bip01_L_Forearm
              {
                OFFSET 30.6251 0 0
                CHANNELS 6 Xposition Yposition Zposition Zrotation Xrotation Yrotation
                JOINT Bip01_L_Hand
                {
                  OFFSET 31.204 0 0
                  CHANNELS 6 Xposition Yposition Zposition Zrotation Xrotation Yrotation
                  JOINT Bip01_L_Finger0
                  {
                    OFFSET 22.1039 0.255856 0.379024
                    CHANNELS 6 Xposition Yposition Zposition Zrotation Xrotation Yrotation
                    JOINT Bip01_L_Finger0Nub
                    {
                      OFFSET 12.0552 0 0
                      CHANNELS 6 Xposition Yposition Zposition Zrotation Xrotation Yrotation
                      End Site
                      {
                        OFFSET 0 0 0
                      }
                    }
                  }
                }
              }
            }
          }
          JOINT Bip01_Neck1
          {
            OFFSET 14.9359 -0.0106278 0
            CHANNELS 6 Xposition Yposition Zposition Zrotation Xrotation Yrotation
            JOINT Bip01_Head
            {
              OFFSET 14.3578 0.505501 0
              CHANNELS 6 Xposition Yposition Zposition Zrotation Xrotation Yrotation
              JOINT BN_Ear_L_01
              {
                OFFSET 3.76994 -2.35629 12.3444
                CHANNELS 6 Xposition Yposition Zposition Zrotation Xrotation Yrotation
                End Site
                {
                  OFFSET 0 0 0
                }
              }
              JOINT BN_Ear_R_01
              {
                OFFSET 3.76995 -2.35622 -12.3442
                CHANNELS 6 Xposition Yposition Zposition Zrotation Xrotation Yrotation
                End Site
                {
                  OFFSET 0 0 0
                }
              }
              JOINT BN_Mouth_01
              {
                OFFSET 11.8395 10.8645 1.27e-005
                CHANNELS 6 Xposition Yposition Zposition Zrotation Xrotation Yrotation
                JOINT BN_Tongue_01
                {
                  OFFSET 9.73752 3.21674 1.016e-005
                  CHANNELS 6 Xposition Yposition Zposition Zrotation Xrotation Yrotation
                  JOINT BN_Tongue_02
                  {
                    OFFSET 9.04304 0.053505 0
                    CHANNELS 6 Xposition Yposition Zposition Zrotation Xrotation Yrotation
                    End Site
                    {
                      OFFSET 0 0 0
                    }
                  }
                }
                JOINT BN_Beard_01
                {
                  OFFSET 6.93466 -0.751793 0
                  CHANNELS 6 Xposition Yposition Zposition Zrotation Xrotation Yrotation
                  JOINT BN_Beard_02
                  {
                    OFFSET 13.0965 1.52588e-005 0
                    CHANNELS 6 Xposition Yposition Zposition Zrotation Xrotation Yrotation
                    End Site
                    {
                      OFFSET 0 0 0
                    }
                  }
                }
              }
              JOINT Bip01_HeadNub
              {
                OFFSET 25.6158 0 0
                CHANNELS 6 Xposition Yposition Zposition Zrotation Xrotation Yrotation
                End Site
                {
                  OFFSET 0 0 0
                }
              }
            }
          }
        }
      }
    }
  }
}
MOTION
Frames:	4
Frame Time:	0.0333333
-43.3411 73.3613 -0.761718 90.0001 -87.245 -180 -7.62939e-006 4.44089e-016 0 -88.48 5.81122 -79.7621 -18.6385 -9.591 -5.96046e-007 -44.8668 0.32666 179.943 20.9743 -1.42109e-014 -0.000670075 22.7539 0.195751 15.2272 20.3015 0 0 7.73177 2.53046 16.9741 21.6394 -7.6294e-006 -9.53674e-007 10.2958 5.51744 30.7461 21.787 1.59278 3.95159 9.25988 -3.06695 -1.47147 -22.2893 3.05922 -20.3547 -95.6118 -2.24616 179.829 34.2647 -3.8147e-006 3.8147e-006 -48.2392 7.31306e-006 7.88575e-006 20.4429 3.8147e-006 -1.90735e-006 70.8674 -5.28218e-007 1.17044e-006 16.5673 -3.8147e-006 -5.72205e-006 -21.4953 7.57423 -0.64361 9.18819 6.94795 -0.00140762 89.5723 1.50128 -0.0512731 1.01906 2.38418e-007 -3.55271e-015 4.0389e-008 1.68874e-008 -5.56719e-007 -21.4124 1.22792 13.7899 -103.843 18.6352 -175.453 34.2647 5.72205e-006 -3.8147e-006 -47.6231 6.24838e-006 8.29763e-006 20.4429 7.6294e-006 -1.90735e-006 62.7184 5.22437e-006 -1.01772e-005 16.5673 3.8147e-006 1.90735e-006 -21.4324 -2.25283 0.242875 9.18784 6.9484 1.90735e-006 89.5168 -1.72894 0.074315 1.01907 4.44089e-016 3.8147e-006 -179.96 -0.000100015 9.92141e-005 39.3331 -0.0246582 0.000215828 -9.59526 -0.494717 -6.53756 34.2801 -15.593 -3.29018e-005 -14.555 -0.000167835 2.18244 -13.504 -16.1508 -6.71166 -163.85 -37.7459 118.407 17.4439 1.52588e-005 3.8147e-006 32.2599 52.7582 -95.196 30.6251 -7.15257e-007 -5.72204e-006 -16.9142 8.64934e-006 2.88029e-006 31.2039 1.90735e-006 5.72204e-006 -137.028 79.9378 137.262 22.1039 0.255845 -0.379022 -7.17355 15.0334 -38.8031 12.0552 0 1.90734e-006 179.96 -1.19034e-005 1.72624e-005 -13.9758 -16.1505 5.66503 -167.184 38.8373 -113.022 17.4439 -7.6294e-006 -1.14441e-005 63.2096 -51.9465 111.498 30.6251 5.72205e-006 0 -26.1401 -1.58542e-005 -7.94066e-006 31.204 -7.10544e-015 0 99.5342 -86.854 92.5513 22.1039 0.255826 0.379054 -10.0592 -4.19094 38.659 12.0552 -1.90735e-006 0 -3.89952e-008 1.00714e-005 -7.5638e-007 14.9375 -0.0103912 -0.000139713 12.9614 0.745706 3.46374 14.3578 0.505471 -4.76837e-007 11.9386 2.0771 -1.86312 3.7699 -2.35627 12.3444 -172.167 32.7142 -81.1406 3.76994 -2.35622 -12.3442 5.8848 29.4885 114.375 11.8396 10.8645 -1.77636e-015 -177.001 -3.70309 178.785 9.73753 3.21678 -5.32907e-015 -2.85748 1.06065e-007 -3.81468e-007 5.17482 0.535248 -0.159796 -9.7303 -3.4968e-007 1.38949e-007 6.93466 -0.751786 0 -82.2976 -5.21349 -2.08038 13.0965 1.52588e-005 -5.96047e-007 -7.89265 -1.63549 -12.1212 25.6158 7.6294e-006 0 8.75711e-009 4.73701e-008 -6.03498e-008 
-43.4621 73.2864 -0.761718 89.9998 -87.1861 -179.999 -7.62939e-006 0 0 -88.4898 5.89071 -79.8825 -18.6385 -9.591 -5.96168e-007 -44.9281 0.325704 178.679 20.9743 1.42109e-013 -0.000670075 22.6915 0.221783 15.0738 20.3015 2.84217e-014 -7.10543e-015 6.50793 2.4471 17.5286 21.6394 -7.6294e-006 -9.53674e-007 8.93753 5.37194 31.8331 21.7932 1.62278 3.90504 9.29796 -3.01622 -1.15634 -22.1874 3.01762 -20.4328 -95.8463 -2.03518 179.832 34.2647 -3.8147e-006 3.8147e-006 -48.7976 7.23393e-006 7.95332e-006 20.4429 3.8147e-006 -1.90735e-006 70.9802 -5.29277e-007 1.17013e-006 16.5673 -3.8147e-006 -5.72205e-006 -21.2634 7.64226 -0.680315 9.18819 6.94795 -0.00140762 89.4782 1.50136 -0.0488092 1.01906 2.38418e-007 3.55271e-015 4.0389e-008 1.68874e-008 -5.56719e-007 -21.4955 1.22651 13.7181 -104.208 18.7857 -175.361 34.2647 5.72205e-006 -3.8147e-006 -48.1737 -1.30944e-006 1.50521e-005 20.4429 7.6294e-006 -1.90735e-006 62.8301 4.43344e-006 -1.06061e-005 16.5673 3.8147e-006 1.90735e-006 -21.3643 -2.21925 0.280214 9.18784 6.9484 1.90673e-006 89.4916 -1.7288 0.0735568 1.01907 -2.22045e-015 3.8147e-006 -179.96 -0.000100015 9.92141e-005 39.3331 -0.0246582 0.000215828 -9.35586 -0.552443 -6.40921 34.2801 -15.593 -3.29011e-005 -14.3434 -0.219188 2.98028 -13.4659 -16.076 -6.964 -163.41 -37.7557 118.955 17.4439 1.52588e-005 3.8147e-006 31.6454 52.3455 -94.425 30.6251 -7.15257e-007 -5.72204e-006 -18.8673 8.4683e-006 3.47864e-006 31.2039 1.90735e-006 5.72204e-006 -134.976 80.1519 136.046 22.1039 0.255845 -0.379022 -7.25077 14.848 -38.7933 12.0552 -2.84218e-014 1.90734e-006 179.96 -1.19034e-005 1.72626e-005 -14.1103 -16.123 5.40479 -168.081 39.0339 -111.843 17.4439 -7.6294e-006 -1.14441e-005 63.6748 -51.3721 111.478 30.6251 5.72205e-006 7.10542e-015 -27.065 -1.5741e-005 -8.20296e-006 31.204 7.10544e-014 3.55271e-015 97.3423 -86.6193 90.4063 22.1039 0.255826 0.379054 -10.0582 -4.1829 38.5481 12.0552 -1.90735e-006 1.42108e-014 -3.89952e-008 1.00714e-005 -7.5638e-007 14.9375 -0.0103912 -0.000139713 12.996 1.0061 3.60559 14.3578 0.505471 -4.76984e-007 11.7762 1.3599 -2.34446 3.7699 -2.35627 12.3444 -173.15 31.5759 -79.8133 3.76993 -2.35622 -12.3442 5.30194 30.3079 115.956 11.8396 10.8645 7.5183e-009 -176.748 -3.88403 -179.906 9.73753 3.21678 -2.91874e-009 -2.78564 1.1368e-007 -3.8452e-007 5.17506 0.535751 -0.160042 -9.78348 -3.29557e-007 1.28702e-007 6.93466 -0.751786 6.82132e-010 -80.2313 -5.25825 -0.819438 13.0965 1.52588e-005 -5.96047e-007 -6.61868 -2.27125 -10.8565 25.6158 7.6294e-006 1.77636e-015 8.7571e-009 4.73701e-008 -6.03498e-008 
-43.6527 73.1323 -0.761718 91.0728 -87.0604 -178.879 -7.62939e-006 4.44089e-016 -7.10543e-015 -88.4983 5.98089 -80.0759 -18.6385 -9.591 -5.96554e-007 -45.1103 0.326036 177.349 20.9743 3.55271e-013 -0.000670075 22.5239 0.289797 14.6523 20.3015 2.84217e-014 -7.10543e-015 5.03738 2.23693 17.9879 21.6394 -7.6294e-006 -9.53674e-007 7.61053 5.20506 32.8964 21.8036 1.65749 3.83159 9.30852 -2.93861 -0.684036 -22.0339 2.94893 -20.5472 -96.2457 -1.74005 179.856 34.2647 -3.8147e-006 3.8147e-006 -49.7731 7.09235e-006 8.07002e-006 20.4429 3.8147e-006 -1.90735e-006 71.3031 -5.24861e-007 1.16889e-006 16.5673 -3.8147e-006 -5.72205e-006 -20.9643 7.77075 -0.741219 9.18819 6.94795 -0.00140762 89.386 1.50144 -0.0463931 1.01906 2.38418e-007 -1.06581e-014 4.0389e-008 1.68874e-008 -5.56719e-007 -21.6218 1.21828 13.6114 -104.909 19.013 -175.161 34.2647 5.72205e-006 -3.8147e-006 -49.2713 -1.63042e-006 1.50554e-005 20.4429 7.6294e-006 -1.90735e-006 63.1424 4.41303e-006 -1.06656e-005 16.5673 3.8147e-006 1.90735e-006 -21.246 -2.09841 0.349859 9.18784 6.9484 1.90581e-006 89.4669 -1.72867 0.0728138 1.01907 3.10863e-015 3.8147e-006 -179.96 -0.000100015 9.92141e-005 39.3331 -0.0246582 0.000215828 -8.96161 -0.651744 -6.28505 34.2801 -15.593 -3.29002e-005 -13.7444 -0.507354 4.24547 -13.4707 -15.899 -7.35126 -162.984 -37.7015 119.991 17.4439 1.52588e-005 3.8147e-006 30.794 51.3932 -93.3516 30.6251 -7.15257e-007 -5.72204e-006 -22.1682 8.35493e-006 3.82907e-006 31.2039 1.90735e-006 5.72204e-006 -133.03 80.3857 135.281 22.1039 0.255845 -0.379022 -7.35365 14.6069 -38.5641 12.0552 -7.10545e-015 1.90734e-006 179.96 -1.19034e-005 1.72628e-005 -14.3878 -16.0083 4.99993 -169.763 39.3773 -109.921 17.4439 -7.6294e-006 -1.14441e-005 63.8342 -50.0897 110.959 30.6251 5.72205e-006 7.10542e-015 -29.2925 -1.54392e-005 -8.82091e-006 31.204 2.13163e-014 -3.55271e-015 95.3311 -86.3166 89.0219 22.1039 0.255826 0.379054 -10.0233 -4.14178 37.5046 12.0552 -1.90735e-006 3.55271e-014 -3.89952e-008 1.00714e-005 -7.5638e-007 14.9375 -0.0103912 -0.000139713 13.1637 1.31929 3.63646 14.3578 0.505471 -4.77283e-007 11.2906 0.167746 -3.68151 3.7699 -2.35627 12.3444 -174.457 29.9086 -77.7622 3.76993 -2.35622 -12.3442 3.73519 32.7894 119.442 11.8396 10.8645 7.05241e-009 -176.219 -4.0255 -178.764 9.73753 3.21678 -6.79043e-009 -2.7152 1.22612e-007 -3.88238e-007 5.17527 0.536241 -0.160283 -9.83562 -3.0943e-007 1.15227e-007 6.93466 -0.751786 1.58698e-009 -75.0612 -5.83895 2.55422 13.0965 1.52588e-005 -5.96047e-007 -3.41914 -3.81652 -7.74271 25.6158 7.6294e-006 5.32907e-015 8.75711e-009 4.73701e-008 -6.03498e-008 
-43.9078 72.9055 -0.761718 91.9046 -86.8768 -177.96 -7.62939e-006 4.44089e-016 0 -88.5028 6.08237 -80.3324 -18.6385 -9.591 -5.97169e-007 -45.4067 0.32646 175.928 20.9743 5.96856e-013 -0.000670075 22.2547 0.404393 13.9683 20.3015 4.26326e-014 -1.59872e-014 3.35198 1.92068 18.3752 21.6394 -7.6294e-006 -9.53674e-007 5.74878 4.8854 33.551 21.8176 1.69744 3.73219 9.29957 -2.83527 -0.0561422 -21.8302 2.8546 -20.6946 -96.7889 -1.36729 179.905 34.2647 -3.8147e-006 3.8147e-006 -51.1108 6.89598e-006 8.22554e-006 20.4429 3.8147e-006 -1.90735e-006 71.806 -5.17988e-007 1.16917e-006 16.5673 -3.8147e-006 -5.72205e-006 -20.6035 7.95143 -0.827554 9.18819 6.94795 -0.00140763 89.2929 1.50151 -0.0439539 1.01906 2.38419e-007 7.10543e-015 4.0389e-008 1.68874e-008 -5.56719e-007 -21.7889 1.20318 13.4704 -105.908 19.2843 -174.846 34.2647 5.72205e-006 -3.8147e-006 -50.8244 5.69291e-006 8.72203e-006 20.4429 7.6294e-006 -1.90735e-006 63.6095 4.77326e-006 -1.05404e-005 16.5673 3.8147e-006 1.90735e-006 -21.1034 -1.9354 0.432876 9.18784 6.9484 1.90427e-006 89.442 -1.72857 0.0720632 1.01907 5.77316e-015 3.8147e-006 -179.96 -0.000100015 9.92142e-005 39.3331 -0.0246582 0.000215828 -8.42143 -0.793537 -6.16396 34.2801 -15.593 -3.28991e-005 -12.8247 -0.832926 5.89748 -13.4975 -15.6357 -7.85032 -162.567 -37.5911 121.416 17.4439 1.52588e-005 3.8147e-006 29.806 50.2179 -92.0519 30.6251 -7.15257e-007 -5.72204e-006 -26.1929 8.18207e-006 4.27136e-006 31.2039 1.90735e-006 5.72204e-006 -131.427 80.6454 134.923 22.1039 0.255845 -0.379022 -7.46406 14.2979 -38.1621 12.0552 -1.77636e-014 1.90734e-006 179.96 -1.19034e-005 1.72629e-005 -14.7701 -15.8165 4.46847 -172.083 39.5204 -107.293 17.4439 -7.6294e-006 -1.14441e-005 63.469 -48.6332 110.06 30.6251 5.72205e-006 -3.55271e-015 -32.5901 -1.49462e-005 -9.71161e-006 31.204 2.13163e-014 7.10542e-015 96.1466 -86.0142 90.4884 22.1039 0.255826 0.379054 -9.95751 -4.07405 35.4783 12.0552 -1.90735e-006 -4.26325e-014 -3.89952e-008 1.00714e-005 -7.5638e-007 14.9375 -0.0103912 -0.000139713 13.4397 1.68494 3.57987 14.3578 0.505471 -4.77798e-007 10.4877 -1.4235 -5.7015 3.7699 -2.35627 12.3444 -175.877 27.7516 -75.3786 3.76993 -2.35622 -12.3442 1.02677 36.3971 124.699 11.8396 10.8645 9.89856e-010 -175.46 -4.13699 -177.788 9.73753 3.21678 -1.09853e-008 -2.64406 1.32272e-007 -3.92054e-007 5.1755 0.536737 -0.160525 -9.88829 -2.88708e-007 1.00495e-007 6.93466 -0.751786 2.56735e-009 -67.831 -6.53572 7.03084 13.0965 1.52588e-005 -5.96047e-007 1.1335 -6.03777 -3.4937 25.6158 7.6294e-006 -2.66454e-015 8.7571e-009 4.73701e-008 -6.03498e-008 
